<?xml version="1.0" encoding="UTF-8" ?>
<svg version="1.1" width="32" height="32" xmlns="http://www.w3.org/2000/svg" shape-rendering="crispEdges">
<rect x="11" y="26" width="1" height="1" fill="#000000" opacity="0.529412" />
<rect x="12" y="26" width="1" height="1" fill="#000000" opacity="0.529412" />
<rect x="13" y="26" width="1" height="1" fill="#000000" opacity="0.529412" />
<rect x="14" y="26" width="1" height="1" fill="#000000" opacity="0.529412" />
<rect x="15" y="26" width="1" height="1" fill="#000000" opacity="0.529412" />
<rect x="16" y="26" width="1" height="1" fill="#000000" opacity="0.529412" />
<rect x="17" y="26" width="1" height="1" fill="#000000" opacity="0.529412" />
<rect x="18" y="26" width="1" height="1" fill="#000000" opacity="0.529412" />
<rect x="19" y="26" width="1" height="1" fill="#000000" opacity="0.529412" />
<rect x="6" y="27" width="1" height="1" fill="#000000" opacity="0.529412" />
<rect x="7" y="27" width="1" height="1" fill="#000000" opacity="0.529412" />
<rect x="8" y="27" width="1" height="1" fill="#000000" opacity="0.529412" />
<rect x="9" y="27" width="1" height="1" fill="#000000" opacity="0.529412" />
<rect x="10" y="27" width="1" height="1" fill="#000000" opacity="0.529412" />
<rect x="11" y="27" width="1" height="1" fill="#000000" opacity="0.529412" />
<rect x="12" y="27" width="1" height="1" fill="#000000" opacity="0.529412" />
<rect x="13" y="27" width="1" height="1" fill="#000000" opacity="0.529412" />
<rect x="14" y="27" width="1" height="1" fill="#000000" opacity="0.529412" />
<rect x="15" y="27" width="1" height="1" fill="#000000" opacity="0.529412" />
<rect x="16" y="27" width="1" height="1" fill="#000000" opacity="0.529412" />
<rect x="17" y="27" width="1" height="1" fill="#000000" opacity="0.529412" />
<rect x="18" y="27" width="1" height="1" fill="#000000" opacity="0.529412" />
<rect x="19" y="27" width="1" height="1" fill="#000000" opacity="0.529412" />
<rect x="20" y="27" width="1" height="1" fill="#000000" opacity="0.529412" />
<rect x="21" y="27" width="1" height="1" fill="#000000" opacity="0.529412" />
<rect x="22" y="27" width="1" height="1" fill="#000000" opacity="0.529412" />
<rect x="23" y="27" width="1" height="1" fill="#000000" opacity="0.529412" />
<rect x="24" y="27" width="1" height="1" fill="#000000" opacity="0.529412" />
<rect x="5" y="28" width="1" height="1" fill="#000000" opacity="0.529412" />
<rect x="6" y="28" width="1" height="1" fill="#000000" opacity="0.529412" />
<rect x="7" y="28" width="1" height="1" fill="#000000" opacity="0.529412" />
<rect x="8" y="28" width="1" height="1" fill="#000000" opacity="0.529412" />
<rect x="9" y="28" width="1" height="1" fill="#000000" opacity="0.529412" />
<rect x="10" y="28" width="1" height="1" fill="#000000" opacity="0.529412" />
<rect x="11" y="28" width="1" height="1" fill="#000000" opacity="0.529412" />
<rect x="12" y="28" width="1" height="1" fill="#000000" opacity="0.529412" />
<rect x="13" y="28" width="1" height="1" fill="#000000" opacity="0.529412" />
<rect x="14" y="28" width="1" height="1" fill="#000000" opacity="0.529412" />
<rect x="15" y="28" width="1" height="1" fill="#000000" opacity="0.529412" />
<rect x="16" y="28" width="1" height="1" fill="#000000" opacity="0.529412" />
<rect x="17" y="28" width="1" height="1" fill="#000000" opacity="0.529412" />
<rect x="18" y="28" width="1" height="1" fill="#000000" opacity="0.529412" />
<rect x="19" y="28" width="1" height="1" fill="#000000" opacity="0.529412" />
<rect x="20" y="28" width="1" height="1" fill="#000000" opacity="0.529412" />
<rect x="21" y="28" width="1" height="1" fill="#000000" opacity="0.529412" />
<rect x="22" y="28" width="1" height="1" fill="#000000" opacity="0.529412" />
<rect x="23" y="28" width="1" height="1" fill="#000000" opacity="0.529412" />
<rect x="24" y="28" width="1" height="1" fill="#000000" opacity="0.529412" />
<rect x="25" y="28" width="1" height="1" fill="#000000" opacity="0.529412" />
<rect x="5" y="29" width="1" height="1" fill="#000000" opacity="0.529412" />
<rect x="6" y="29" width="1" height="1" fill="#000000" opacity="0.529412" />
<rect x="7" y="29" width="1" height="1" fill="#000000" opacity="0.529412" />
<rect x="8" y="29" width="1" height="1" fill="#000000" opacity="0.529412" />
<rect x="9" y="29" width="1" height="1" fill="#000000" opacity="0.529412" />
<rect x="10" y="29" width="1" height="1" fill="#000000" opacity="0.529412" />
<rect x="11" y="29" width="1" height="1" fill="#000000" opacity="0.529412" />
<rect x="12" y="29" width="1" height="1" fill="#000000" opacity="0.529412" />
<rect x="13" y="29" width="1" height="1" fill="#000000" opacity="0.529412" />
<rect x="14" y="29" width="1" height="1" fill="#000000" opacity="0.529412" />
<rect x="15" y="29" width="1" height="1" fill="#000000" opacity="0.529412" />
<rect x="16" y="29" width="1" height="1" fill="#000000" opacity="0.529412" />
<rect x="17" y="29" width="1" height="1" fill="#000000" opacity="0.529412" />
<rect x="18" y="29" width="1" height="1" fill="#000000" opacity="0.529412" />
<rect x="19" y="29" width="1" height="1" fill="#000000" opacity="0.529412" />
<rect x="20" y="29" width="1" height="1" fill="#000000" opacity="0.529412" />
<rect x="21" y="29" width="1" height="1" fill="#000000" opacity="0.529412" />
<rect x="22" y="29" width="1" height="1" fill="#000000" opacity="0.529412" />
<rect x="23" y="29" width="1" height="1" fill="#000000" opacity="0.529412" />
<rect x="24" y="29" width="1" height="1" fill="#000000" opacity="0.529412" />
<rect x="25" y="29" width="1" height="1" fill="#000000" opacity="0.529412" />
<rect x="6" y="30" width="1" height="1" fill="#000000" opacity="0.529412" />
<rect x="7" y="30" width="1" height="1" fill="#000000" opacity="0.529412" />
<rect x="8" y="30" width="1" height="1" fill="#000000" opacity="0.529412" />
<rect x="9" y="30" width="1" height="1" fill="#000000" opacity="0.529412" />
<rect x="10" y="30" width="1" height="1" fill="#000000" opacity="0.529412" />
<rect x="11" y="30" width="1" height="1" fill="#000000" opacity="0.529412" />
<rect x="12" y="30" width="1" height="1" fill="#000000" opacity="0.529412" />
<rect x="13" y="30" width="1" height="1" fill="#000000" opacity="0.529412" />
<rect x="14" y="30" width="1" height="1" fill="#000000" opacity="0.529412" />
<rect x="15" y="30" width="1" height="1" fill="#000000" opacity="0.529412" />
<rect x="16" y="30" width="1" height="1" fill="#000000" opacity="0.529412" />
<rect x="17" y="30" width="1" height="1" fill="#000000" opacity="0.529412" />
<rect x="18" y="30" width="1" height="1" fill="#000000" opacity="0.529412" />
<rect x="19" y="30" width="1" height="1" fill="#000000" opacity="0.529412" />
<rect x="20" y="30" width="1" height="1" fill="#000000" opacity="0.529412" />
<rect x="21" y="30" width="1" height="1" fill="#000000" opacity="0.529412" />
<rect x="22" y="30" width="1" height="1" fill="#000000" opacity="0.529412" />
<rect x="23" y="30" width="1" height="1" fill="#000000" opacity="0.529412" />
<rect x="24" y="30" width="1" height="1" fill="#000000" opacity="0.529412" />
<rect x="9" y="31" width="1" height="1" fill="#000000" opacity="0.529412" />
<rect x="10" y="31" width="1" height="1" fill="#000000" opacity="0.529412" />
<rect x="11" y="31" width="1" height="1" fill="#000000" opacity="0.529412" />
<rect x="12" y="31" width="1" height="1" fill="#000000" opacity="0.529412" />
<rect x="13" y="31" width="1" height="1" fill="#000000" opacity="0.529412" />
<rect x="14" y="31" width="1" height="1" fill="#000000" opacity="0.529412" />
<rect x="15" y="31" width="1" height="1" fill="#000000" opacity="0.529412" />
<rect x="16" y="31" width="1" height="1" fill="#000000" opacity="0.529412" />
<rect x="17" y="31" width="1" height="1" fill="#000000" opacity="0.529412" />
<rect x="18" y="31" width="1" height="1" fill="#000000" opacity="0.529412" />
<rect x="19" y="31" width="1" height="1" fill="#000000" opacity="0.529412" />
<rect x="20" y="31" width="1" height="1" fill="#000000" opacity="0.529412" />
<rect x="21" y="31" width="1" height="1" fill="#000000" opacity="0.529412" />
</svg>